<mxfile host="Electron" agent="Mozilla/5.0 (Windows NT 10.0; Win64; x64) AppleWebKit/537.36 (KHTML, like Gecko) draw.io/24.7.17 Chrome/128.0.6613.36 Electron/32.0.1 Safari/537.36" version="24.7.17">
  <diagram name="Page-1" id="gmJVIDccvWsY-ryzsYZR">
    <mxGraphModel dx="2074" dy="1204" grid="1" gridSize="10" guides="1" tooltips="1" connect="1" arrows="1" fold="1" page="1" pageScale="1" pageWidth="850" pageHeight="1100" math="1" shadow="0">
      <root>
        <mxCell id="0" />
        <mxCell id="1" parent="0" />
        <mxCell id="8tRsAm4OLRTYSmNUncQA-51" value="" style="ellipse;whiteSpace=wrap;html=1;aspect=fixed;movable=1;resizable=1;rotatable=1;deletable=1;editable=1;locked=0;connectable=1;" vertex="1" parent="1">
          <mxGeometry x="805" y="445" width="50" height="50" as="geometry" />
        </mxCell>
        <mxCell id="8tRsAm4OLRTYSmNUncQA-4" style="edgeStyle=orthogonalEdgeStyle;rounded=0;orthogonalLoop=1;jettySize=auto;html=1;entryX=0;entryY=0.5;entryDx=0;entryDy=0;movable=0;resizable=0;rotatable=0;deletable=0;editable=0;locked=1;connectable=0;" edge="1" parent="1" source="8tRsAm4OLRTYSmNUncQA-2" target="8tRsAm4OLRTYSmNUncQA-3">
          <mxGeometry relative="1" as="geometry" />
        </mxCell>
        <mxCell id="8tRsAm4OLRTYSmNUncQA-5" value="a&amp;nbsp; &amp;nbsp;b" style="edgeLabel;html=1;align=center;verticalAlign=middle;resizable=0;points=[];labelBackgroundColor=none;movable=0;rotatable=0;deletable=0;editable=0;locked=1;connectable=0;" vertex="1" connectable="0" parent="8tRsAm4OLRTYSmNUncQA-4">
          <mxGeometry x="-0.0563" relative="1" as="geometry">
            <mxPoint y="-8" as="offset" />
          </mxGeometry>
        </mxCell>
        <mxCell id="8tRsAm4OLRTYSmNUncQA-39" style="rounded=0;orthogonalLoop=1;jettySize=auto;html=1;entryX=0;entryY=0;entryDx=0;entryDy=0;movable=0;resizable=0;rotatable=0;deletable=0;editable=0;locked=1;connectable=0;" edge="1" parent="1" source="8tRsAm4OLRTYSmNUncQA-2" target="8tRsAm4OLRTYSmNUncQA-12">
          <mxGeometry relative="1" as="geometry" />
        </mxCell>
        <mxCell id="8tRsAm4OLRTYSmNUncQA-2" value="" style="ellipse;whiteSpace=wrap;html=1;aspect=fixed;movable=0;resizable=0;rotatable=0;deletable=0;editable=0;locked=1;connectable=0;" vertex="1" parent="1">
          <mxGeometry x="315" y="275" width="50" height="50" as="geometry" />
        </mxCell>
        <mxCell id="8tRsAm4OLRTYSmNUncQA-1" value="&lt;font style=&quot;font-size: 20px;&quot;&gt;A&lt;/font&gt;" style="ellipse;whiteSpace=wrap;html=1;aspect=fixed;movable=0;resizable=0;rotatable=0;deletable=0;editable=0;locked=1;connectable=0;" vertex="1" parent="1">
          <mxGeometry x="320" y="280" width="40" height="40" as="geometry" />
        </mxCell>
        <mxCell id="8tRsAm4OLRTYSmNUncQA-13" style="rounded=0;orthogonalLoop=1;jettySize=auto;html=1;entryX=1;entryY=0;entryDx=0;entryDy=0;movable=0;resizable=0;rotatable=0;deletable=0;editable=0;locked=1;connectable=0;" edge="1" parent="1" source="8tRsAm4OLRTYSmNUncQA-3" target="8tRsAm4OLRTYSmNUncQA-12">
          <mxGeometry relative="1" as="geometry" />
        </mxCell>
        <mxCell id="8tRsAm4OLRTYSmNUncQA-16" value="e" style="edgeLabel;html=1;align=center;verticalAlign=middle;resizable=0;points=[];labelBackgroundColor=none;movable=0;rotatable=0;deletable=0;editable=0;locked=1;connectable=0;" vertex="1" connectable="0" parent="8tRsAm4OLRTYSmNUncQA-13">
          <mxGeometry x="-0.1181" y="2" relative="1" as="geometry">
            <mxPoint x="4" y="6" as="offset" />
          </mxGeometry>
        </mxCell>
        <mxCell id="8tRsAm4OLRTYSmNUncQA-27" style="rounded=0;orthogonalLoop=1;jettySize=auto;html=1;entryX=0;entryY=1;entryDx=0;entryDy=0;movable=0;resizable=0;rotatable=0;deletable=0;editable=0;locked=1;connectable=0;" edge="1" parent="1" source="8tRsAm4OLRTYSmNUncQA-3" target="8tRsAm4OLRTYSmNUncQA-8">
          <mxGeometry relative="1" as="geometry" />
        </mxCell>
        <mxCell id="8tRsAm4OLRTYSmNUncQA-30" value="c" style="edgeLabel;html=1;align=center;verticalAlign=middle;resizable=0;points=[];labelBackgroundColor=none;movable=0;rotatable=0;deletable=0;editable=0;locked=1;connectable=0;" vertex="1" connectable="0" parent="8tRsAm4OLRTYSmNUncQA-27">
          <mxGeometry x="0.0315" y="-1" relative="1" as="geometry">
            <mxPoint x="6" y="6" as="offset" />
          </mxGeometry>
        </mxCell>
        <mxCell id="8tRsAm4OLRTYSmNUncQA-3" value="&lt;font style=&quot;font-size: 20px;&quot;&gt;B&lt;/font&gt;" style="ellipse;whiteSpace=wrap;html=1;aspect=fixed;movable=0;resizable=0;rotatable=0;deletable=0;editable=0;locked=1;connectable=0;" vertex="1" parent="1">
          <mxGeometry x="440" y="280" width="40" height="40" as="geometry" />
        </mxCell>
        <mxCell id="8tRsAm4OLRTYSmNUncQA-6" value="$$E = \{a,b,c, d, e, f, g\}$$&lt;div&gt;&lt;div&gt;&lt;span style=&quot;background-color: initial;&quot;&gt;a - package arrives&lt;/span&gt;&lt;/div&gt;&lt;div&gt;&lt;span style=&quot;background-color: initial;&quot;&gt;b - package overdue&lt;/span&gt;&lt;/div&gt;c - wait for available drone&lt;/div&gt;&lt;div&gt;d - drone arrives&lt;/div&gt;&lt;div&gt;e - send drone&lt;/div&gt;&lt;div&gt;&lt;div&gt;f - update drone database&lt;/div&gt;&lt;div&gt;&lt;span style=&quot;background-color: initial;&quot;&gt;g - update package database&lt;/span&gt;&lt;/div&gt;&lt;div&gt;&lt;span style=&quot;color: rgba(0, 0, 0, 0); font-family: monospace; font-size: 0px; text-align: start; text-wrap: nowrap; background-color: initial;&quot;&gt;bbbb3CmxGraphModel%3E%3Croot%3E%3CmxCell%20id%3D%220%22%2F%3E%3CmxCell%20id%3D%221%22%20parent%3D%220%22%2F%3E%3CmxCell%20id%3D%222%22%20value%3D%22%26lt%3Bfont%20style%3D%26quot%3Bfont-size%3A%2020px%3B%26quot%3B%26gt%3BA%26lt%3B%2Ffont%26gt%3B%22%20style%3D%22ellipse%3BwhiteSpace%3Dwrap%3Bhtml%3D1%3Baspect%3Dfixed%3B%22%20vertex%3D%221%22%20parent%3D%221%22%3E%3CmxGeometry%20x%3D%22320%22%20y%3D%22280%22%20width%3D%2240%22%20height%3D%2240%22%20as%3D%22geometry%22%2F%3E%3C%2FmxCell%3E%3C%2Froot%3E%3C%2FmxGraphModel%3E&lt;/span&gt;&lt;span style=&quot;color: rgba(0, 0, 0, 0); font-family: monospace; font-size: 0px; text-align: start; text-wrap: nowrap; background-color: initial;&quot;&gt;%3CmxGraphModel%3E%3Croot%3E%3CmxCell%20id%3D%220%22%2F%3E%3CmxCell%20id%3D%221%22%20parent%3D%220%22%2F%3E%3CmxCell%20id%3D%222%22%20value%3D%22%26lt%3Bfont%20style%3D%26quot%3Bfont-size%3A%2020px%3B%26quot%3B%26gt%3BA%26lt%3B%2Ffont%26gt%3B%22%20style%3D%22ellipse%3BwhiteSpace%3Dwrap%3Bhtml%3D1%3Baspect%3Dfixed%3B%22%20vertex%3D%221%22%20parent%3D%221%22%3E%3CmxGeometry%20x%3D%22320%22%20y%3D%22280%22%20width%3D%2240%22%20height%3D%2240%22%20as%3D%22geometry%22%2F%3E%3C%2FmxCell%3E%3C%2Froot%3E%3C%2F&amp;nbsp;&lt;/span&gt;&lt;/div&gt;&lt;/div&gt;&lt;div&gt;&lt;span style=&quot;color: rgba(0, 0, 0, 0); font-family: monospace; font-size: 0px; text-align: start; text-wrap: nowrap; background-color: initial;&quot;&gt;&lt;br&gt;&lt;/span&gt;&lt;/div&gt;" style="text;html=1;align=center;verticalAlign=middle;whiteSpace=wrap;rounded=0;movable=1;resizable=1;rotatable=1;deletable=1;editable=1;locked=0;connectable=1;" vertex="1" parent="1">
          <mxGeometry x="20" y="340" width="240" height="60" as="geometry" />
        </mxCell>
        <mxCell id="8tRsAm4OLRTYSmNUncQA-28" style="rounded=0;orthogonalLoop=1;jettySize=auto;html=1;entryX=1;entryY=1;entryDx=0;entryDy=0;movable=0;resizable=0;rotatable=0;deletable=0;editable=0;locked=1;connectable=0;" edge="1" parent="1" source="8tRsAm4OLRTYSmNUncQA-8" target="8tRsAm4OLRTYSmNUncQA-26">
          <mxGeometry relative="1" as="geometry" />
        </mxCell>
        <mxCell id="8tRsAm4OLRTYSmNUncQA-34" value="d" style="edgeLabel;html=1;align=center;verticalAlign=middle;resizable=0;points=[];labelBackgroundColor=none;movable=0;rotatable=0;deletable=0;editable=0;locked=1;connectable=0;" vertex="1" connectable="0" parent="8tRsAm4OLRTYSmNUncQA-28">
          <mxGeometry x="-0.2312" relative="1" as="geometry">
            <mxPoint x="3" y="-12" as="offset" />
          </mxGeometry>
        </mxCell>
        <mxCell id="8tRsAm4OLRTYSmNUncQA-8" value="&lt;font style=&quot;font-size: 20px;&quot;&gt;E&lt;/font&gt;" style="ellipse;whiteSpace=wrap;html=1;aspect=fixed;movable=1;resizable=1;rotatable=1;deletable=1;editable=1;locked=0;connectable=1;" vertex="1" parent="1">
          <mxGeometry x="500" y="220" width="40" height="40" as="geometry" />
        </mxCell>
        <mxCell id="8tRsAm4OLRTYSmNUncQA-12" value="&lt;font style=&quot;font-size: 20px;&quot;&gt;C&lt;/font&gt;" style="ellipse;whiteSpace=wrap;html=1;aspect=fixed;movable=0;resizable=0;rotatable=0;deletable=0;editable=0;locked=1;connectable=0;" vertex="1" parent="1">
          <mxGeometry x="380" y="340" width="40" height="40" as="geometry" />
        </mxCell>
        <mxCell id="8tRsAm4OLRTYSmNUncQA-23" value="h" style="edgeLabel;html=1;align=center;verticalAlign=middle;resizable=0;points=[];labelBackgroundColor=none;movable=0;rotatable=0;deletable=0;editable=0;locked=1;connectable=0;" vertex="1" connectable="0" parent="1">
          <mxGeometry x="336.0024386570876" y="370.00437604397706" as="geometry">
            <mxPoint x="-4" y="-4" as="offset" />
          </mxGeometry>
        </mxCell>
        <mxCell id="8tRsAm4OLRTYSmNUncQA-24" value="f" style="edgeLabel;html=1;align=center;verticalAlign=middle;resizable=0;points=[];labelBackgroundColor=none;movable=0;rotatable=0;deletable=0;editable=0;locked=1;connectable=0;" vertex="1" connectable="0" parent="1">
          <mxGeometry x="382.0024386570876" y="398.00437604397706" as="geometry">
            <mxPoint x="-4" y="-4" as="offset" />
          </mxGeometry>
        </mxCell>
        <mxCell id="8tRsAm4OLRTYSmNUncQA-29" style="rounded=0;orthogonalLoop=1;jettySize=auto;html=1;entryX=1;entryY=0;entryDx=0;entryDy=0;movable=0;resizable=0;rotatable=0;deletable=0;editable=0;locked=1;connectable=0;" edge="1" parent="1" source="8tRsAm4OLRTYSmNUncQA-26" target="8tRsAm4OLRTYSmNUncQA-32">
          <mxGeometry relative="1" as="geometry" />
        </mxCell>
        <mxCell id="8tRsAm4OLRTYSmNUncQA-36" value="f" style="edgeLabel;html=1;align=center;verticalAlign=middle;resizable=0;points=[];labelBackgroundColor=none;movable=0;rotatable=0;deletable=0;editable=0;locked=1;connectable=0;" vertex="1" connectable="0" parent="8tRsAm4OLRTYSmNUncQA-29">
          <mxGeometry x="0.021" relative="1" as="geometry">
            <mxPoint x="-8" y="-8" as="offset" />
          </mxGeometry>
        </mxCell>
        <mxCell id="8tRsAm4OLRTYSmNUncQA-26" value="&lt;font style=&quot;font-size: 20px;&quot;&gt;F&lt;/font&gt;" style="ellipse;whiteSpace=wrap;html=1;aspect=fixed;movable=1;resizable=1;rotatable=1;deletable=1;editable=1;locked=0;connectable=1;" vertex="1" parent="1">
          <mxGeometry x="440" y="160" width="40" height="40" as="geometry" />
        </mxCell>
        <mxCell id="8tRsAm4OLRTYSmNUncQA-33" style="rounded=0;orthogonalLoop=1;jettySize=auto;html=1;entryX=0;entryY=0;entryDx=0;entryDy=0;movable=0;resizable=0;rotatable=0;deletable=0;editable=0;locked=1;connectable=0;" edge="1" parent="1" source="8tRsAm4OLRTYSmNUncQA-32" target="8tRsAm4OLRTYSmNUncQA-3">
          <mxGeometry relative="1" as="geometry" />
        </mxCell>
        <mxCell id="8tRsAm4OLRTYSmNUncQA-37" value="g" style="edgeLabel;html=1;align=center;verticalAlign=middle;resizable=0;points=[];labelBackgroundColor=none;movable=0;rotatable=0;deletable=0;editable=0;locked=1;connectable=0;" vertex="1" connectable="0" parent="8tRsAm4OLRTYSmNUncQA-33">
          <mxGeometry x="-0.3573" relative="1" as="geometry">
            <mxPoint x="-2" y="12" as="offset" />
          </mxGeometry>
        </mxCell>
        <mxCell id="8tRsAm4OLRTYSmNUncQA-32" value="&lt;font style=&quot;font-size: 20px;&quot;&gt;G&lt;/font&gt;" style="ellipse;whiteSpace=wrap;html=1;aspect=fixed;movable=1;resizable=1;rotatable=1;deletable=1;editable=1;locked=0;connectable=1;" vertex="1" parent="1">
          <mxGeometry x="380" y="220" width="40" height="40" as="geometry" />
        </mxCell>
        <mxCell id="8tRsAm4OLRTYSmNUncQA-43" value="d" style="edgeLabel;html=1;align=center;verticalAlign=middle;resizable=0;points=[];labelBackgroundColor=none;movable=0;rotatable=0;deletable=0;editable=0;locked=1;connectable=0;" vertex="1" connectable="0" parent="1">
          <mxGeometry x="357.0024386570876" y="338.00437604397706" as="geometry">
            <mxPoint x="5" y="-2" as="offset" />
          </mxGeometry>
        </mxCell>
        <mxCell id="8tRsAm4OLRTYSmNUncQA-47" style="edgeStyle=orthogonalEdgeStyle;rounded=0;orthogonalLoop=1;jettySize=auto;html=1;entryX=0.5;entryY=1;entryDx=0;entryDy=0;movable=0;resizable=0;rotatable=0;deletable=0;editable=0;locked=1;connectable=0;" edge="1" parent="1" source="8tRsAm4OLRTYSmNUncQA-45" target="8tRsAm4OLRTYSmNUncQA-2">
          <mxGeometry relative="1" as="geometry" />
        </mxCell>
        <mxCell id="8tRsAm4OLRTYSmNUncQA-45" value="&lt;font style=&quot;font-size: 20px;&quot;&gt;D&lt;/font&gt;" style="ellipse;whiteSpace=wrap;html=1;aspect=fixed;movable=1;resizable=1;rotatable=1;deletable=1;editable=1;locked=0;connectable=1;" vertex="1" parent="1">
          <mxGeometry x="320" y="400" width="40" height="40" as="geometry" />
        </mxCell>
        <mxCell id="8tRsAm4OLRTYSmNUncQA-46" style="rounded=0;orthogonalLoop=1;jettySize=auto;html=1;entryX=1;entryY=0;entryDx=0;entryDy=0;movable=0;resizable=0;rotatable=0;deletable=0;editable=0;locked=1;connectable=0;" edge="1" parent="1" source="8tRsAm4OLRTYSmNUncQA-12" target="8tRsAm4OLRTYSmNUncQA-45">
          <mxGeometry relative="1" as="geometry" />
        </mxCell>
        <mxCell id="8tRsAm4OLRTYSmNUncQA-54" style="rounded=0;orthogonalLoop=1;jettySize=auto;html=1;entryX=0;entryY=0.5;entryDx=0;entryDy=0;exitX=1;exitY=0.5;exitDx=0;exitDy=0;" edge="1" parent="1" source="8tRsAm4OLRTYSmNUncQA-51" target="8tRsAm4OLRTYSmNUncQA-52">
          <mxGeometry relative="1" as="geometry">
            <mxPoint x="850" y="450" as="sourcePoint" />
          </mxGeometry>
        </mxCell>
        <mxCell id="8tRsAm4OLRTYSmNUncQA-55" value="a&amp;nbsp; &amp;nbsp;b" style="edgeLabel;html=1;align=center;verticalAlign=middle;resizable=0;points=[];labelBackgroundColor=none;" vertex="1" connectable="0" parent="8tRsAm4OLRTYSmNUncQA-54">
          <mxGeometry x="-0.1255" y="-1" relative="1" as="geometry">
            <mxPoint x="1" y="11" as="offset" />
          </mxGeometry>
        </mxCell>
        <mxCell id="8tRsAm4OLRTYSmNUncQA-48" value="&lt;span style=&quot;font-size: 20px;&quot;&gt;A&lt;/span&gt;" style="ellipse;whiteSpace=wrap;html=1;aspect=fixed;movable=1;resizable=1;rotatable=1;deletable=1;editable=1;locked=0;connectable=1;" vertex="1" parent="1">
          <mxGeometry x="810" y="450" width="40" height="40" as="geometry" />
        </mxCell>
        <mxCell id="8tRsAm4OLRTYSmNUncQA-49" value="$$E = \{a,b,c, d\}$$&lt;div&gt;&lt;div&gt;&lt;span style=&quot;background-color: initial;&quot;&gt;a - en route to deliver&lt;/span&gt;&lt;/div&gt;&lt;div&gt;&lt;span style=&quot;background-color: initial;&quot;&gt;b -&amp;nbsp;&lt;/span&gt;&lt;span style=&quot;background-color: initial;&quot;&gt;en route to pick-up&lt;/span&gt;&lt;/div&gt;&lt;/div&gt;&lt;div&gt;c - return with overdue package&lt;/div&gt;&lt;div&gt;d - return without package&lt;/div&gt;&lt;div&gt;&lt;div&gt;&lt;span style=&quot;color: rgba(0, 0, 0, 0); font-family: monospace; font-size: 0px; text-align: start; text-wrap: nowrap; background-color: initial;&quot;&gt;bbbb3CmxGraphModel%3E%3Croot%3E%3CmxCell%20id%3D%220%22%2F%3E%3CmxCell%20id%3D%221%22%20parent%3D%220%22%2F%3E%3CmxCell%20id%3D%222%22%20value%3D%22%26lt%3Bfont%20style%3D%26quot%3Bfont-size%3A%2020px%3B%26quot%3B%26gt%3BA%26lt%3B%2Ffont%26gt%3B%22%20style%3D%22ellipse%3BwhiteSpace%3Dwrap%3Bhtml%3D1%3Baspect%3Dfixed%3B%22%20vertex%3D%221%22%20parent%3D%221%22%3E%3CmxGeometry%20x%3D%22320%22%20y%3D%22280%22%20width%3D%2240%22%20height%3D%2240%22%20as%3D%22geometry%22%2F%3E%3C%2FmxCell%3E%3C%2Froot%3E%3C%2FmxGraphModel%3E&lt;/span&gt;&lt;span style=&quot;color: rgba(0, 0, 0, 0); font-family: monospace; font-size: 0px; text-align: start; text-wrap: nowrap; background-color: initial;&quot;&gt;%3CmxGraphModel%3E%3Croot%3E%3CmxCell%20id%3D%220%22%2F%3E%3CmxCell%20id%3D%221%22%20parent%3D%220%22%2F%3E%3CmxCell%20id%3D%222%22%20value%3D%22%26lt%3Bfont%20style%3D%26quot%3Bfont-size%3A%2020px%3B%26quot%3B%26gt%3BA%26lt%3B%2Ffont%26gt%3B%22%20style%3D%22ellipse%3BwhiteSpace%3Dwrap%3Bhtml%3D1%3Baspect%3Dfixed%3B%22%20vertex%3D%221%22%20parent%3D%221%22%3E%3CmxGeometry%20x%3D%22320%22%20y%3D%22280%22%20width%3D%2240%22%20height%3D%2240%22%20as%3D%22geometry%22%2F%3E%3C%2FmxCell%3E%3C%2Froot%3E%3C%2F&amp;nbsp;&lt;/span&gt;&lt;/div&gt;&lt;/div&gt;&lt;div&gt;&lt;span style=&quot;color: rgba(0, 0, 0, 0); font-family: monospace; font-size: 0px; text-align: start; text-wrap: nowrap; background-color: initial;&quot;&gt;&lt;br&gt;&lt;/span&gt;&lt;/div&gt;" style="text;html=1;align=center;verticalAlign=middle;whiteSpace=wrap;rounded=0;movable=1;resizable=1;rotatable=1;deletable=1;editable=1;locked=0;connectable=1;" vertex="1" parent="1">
          <mxGeometry x="540" y="435" width="240" height="60" as="geometry" />
        </mxCell>
        <mxCell id="8tRsAm4OLRTYSmNUncQA-52" value="&lt;span style=&quot;font-size: 20px;&quot;&gt;B&lt;/span&gt;" style="ellipse;whiteSpace=wrap;html=1;aspect=fixed;movable=1;resizable=1;rotatable=1;deletable=1;editable=1;locked=0;connectable=1;" vertex="1" parent="1">
          <mxGeometry x="930" y="450" width="40" height="40" as="geometry" />
        </mxCell>
        <mxCell id="8tRsAm4OLRTYSmNUncQA-64" value="$$E = \{a,b,c, d,e, f, g, h\}$$&lt;div&gt;&lt;div&gt;&lt;div&gt;&lt;span style=&quot;background-color: initial;&quot;&gt;a - drone arrives with package&lt;/span&gt;&lt;/div&gt;&lt;div&gt;&lt;span style=&quot;background-color: initial;&quot;&gt;b -&amp;nbsp;&lt;/span&gt;&lt;span style=&quot;background-color: initial;&quot;&gt;drone arrives without package&lt;/span&gt;&lt;/div&gt;&lt;/div&gt;&lt;div&gt;c - package picked up by recipient&lt;/div&gt;&lt;div&gt;d - package is overdue&lt;/div&gt;&lt;div&gt;e - check if drone is arriving&lt;/div&gt;&lt;div&gt;f - wait for drone&lt;/div&gt;&lt;div&gt;g - send drone back with package&lt;/div&gt;&lt;div&gt;h - send package overdue signal&lt;/div&gt;&lt;div&gt;i - send package picked up signal&lt;/div&gt;&lt;div&gt;&lt;br&gt;&lt;/div&gt;&lt;div&gt;&lt;div&gt;&lt;span style=&quot;color: rgba(0, 0, 0, 0); font-family: monospace; font-size: 0px; text-align: start; text-wrap: nowrap; background-color: initial;&quot;&gt;bbbb3CmxGraphModel%3E%3Croot%3E%3CmxCell%20id%3D%220%22%2F%3E%3CmxCell%20id%3D%221%22%20parent%3D%220%22%2F%3E%3CmxCell%20id%3D%222%22%20value%3D%22%26lt%3Bfont%20style%3D%26quot%3Bfont-size%3A%2020px%3B%26quot%3B%26gt%3BA%26lt%3B%2Ffont%26gt%3B%22%20style%3D%22ellipse%3BwhiteSpace%3Dwrap%3Bhtml%3D1%3Baspect%3Dfixed%3B%22%20vertex%3D%221%22%20parent%3D%221%22%3E%3CmxGeometry%20x%3D%22320%22%20y%3D%22280%22%20width%3D%2240%22%20height%3D%2240%22%20as%3D%22geometry%22%2F%3E%3C%2FmxCell%3E%3C%2Froot%3E%3C%2FmxGraphModel%3&lt;/span&gt;&lt;/div&gt;&lt;div&gt;&lt;span style=&quot;background-color: initial; color: rgba(0, 0, 0, 0); font-family: monospace; font-size: 0px; text-align: start; text-wrap: nowrap;&quot;&gt;&amp;nbsp;dsa%3CmxGraphModel%3E%3Croot%3E%3CmxCell%20id%3D%220%22%2F%3E%3CmxCell%20id%3D%221%22%20parent%3D%220%22%2F%3E%3CmxCell%20id%3D%222%22%20value%3D%22%26lt%3Bfont%20style%3D%26quot%3Bfont-size%3A%2020px%3B%26quot%3B%26gt%3BA%26lt%3B%2Ffont%26gt%3B%22%20style%3D%22ellipse%3BwhiteSpace%3Dwrap%3Bhtml%3D1%3Baspect%3Dfixed%3B%22%20vertex%3D%221%22%20parent%3D%221%22%3E%3CmxGeometry%20x%3D%22320%22%20y%3D%22280%22%20width%3D%2240%22%20height%3D%2240%22%20as%3D%22geometry%22%2F%3E%3C%2FmxCell%3E%3C%2Froot%3E&lt;/span&gt;&lt;/div&gt;&lt;/div&gt;&lt;/div&gt;" style="text;html=1;align=center;verticalAlign=middle;whiteSpace=wrap;rounded=0;movable=1;resizable=1;rotatable=1;deletable=1;editable=1;locked=0;connectable=1;" vertex="1" parent="1">
          <mxGeometry x="30" y="650" width="240" height="60" as="geometry" />
        </mxCell>
        <mxCell id="8tRsAm4OLRTYSmNUncQA-80" style="rounded=0;orthogonalLoop=1;jettySize=auto;html=1;entryX=0;entryY=0;entryDx=0;entryDy=0;exitX=1;exitY=1;exitDx=0;exitDy=0;" edge="1" parent="1" source="8tRsAm4OLRTYSmNUncQA-65" target="8tRsAm4OLRTYSmNUncQA-79">
          <mxGeometry relative="1" as="geometry" />
        </mxCell>
        <mxCell id="8tRsAm4OLRTYSmNUncQA-81" value="c" style="edgeLabel;html=1;align=center;verticalAlign=middle;resizable=0;points=[];labelBackgroundColor=none;" vertex="1" connectable="0" parent="8tRsAm4OLRTYSmNUncQA-80">
          <mxGeometry x="-0.0308" y="-1" relative="1" as="geometry">
            <mxPoint x="-9" y="4" as="offset" />
          </mxGeometry>
        </mxCell>
        <mxCell id="8tRsAm4OLRTYSmNUncQA-84" value="" style="edgeStyle=orthogonalEdgeStyle;rounded=0;orthogonalLoop=1;jettySize=auto;html=1;" edge="1" parent="1" source="8tRsAm4OLRTYSmNUncQA-65" target="8tRsAm4OLRTYSmNUncQA-82">
          <mxGeometry relative="1" as="geometry" />
        </mxCell>
        <mxCell id="8tRsAm4OLRTYSmNUncQA-85" value="d" style="edgeLabel;html=1;align=center;verticalAlign=middle;resizable=0;points=[];labelBackgroundColor=none;" vertex="1" connectable="0" parent="8tRsAm4OLRTYSmNUncQA-84">
          <mxGeometry x="-0.0844" relative="1" as="geometry">
            <mxPoint y="-8" as="offset" />
          </mxGeometry>
        </mxCell>
        <mxCell id="8tRsAm4OLRTYSmNUncQA-116" value="" style="edgeStyle=orthogonalEdgeStyle;rounded=0;orthogonalLoop=1;jettySize=auto;html=1;" edge="1" parent="1" source="8tRsAm4OLRTYSmNUncQA-65" target="8tRsAm4OLRTYSmNUncQA-114">
          <mxGeometry relative="1" as="geometry" />
        </mxCell>
        <mxCell id="8tRsAm4OLRTYSmNUncQA-65" value="" style="ellipse;whiteSpace=wrap;html=1;aspect=fixed;movable=1;resizable=1;rotatable=1;deletable=1;editable=1;locked=0;connectable=1;" vertex="1" parent="1">
          <mxGeometry x="335" y="665" width="50" height="50" as="geometry" />
        </mxCell>
        <mxCell id="8tRsAm4OLRTYSmNUncQA-66" value="&lt;span style=&quot;font-size: 20px;&quot;&gt;A&lt;/span&gt;" style="ellipse;whiteSpace=wrap;html=1;aspect=fixed;movable=1;resizable=1;rotatable=1;deletable=1;editable=1;locked=0;connectable=1;" vertex="1" parent="1">
          <mxGeometry x="340" y="670" width="40" height="40" as="geometry" />
        </mxCell>
        <mxCell id="8tRsAm4OLRTYSmNUncQA-75" value="" style="curved=1;endArrow=classic;html=1;rounded=0;exitX=0;exitY=0;exitDx=0;exitDy=0;entryX=1;entryY=0;entryDx=0;entryDy=0;" edge="1" parent="1" source="8tRsAm4OLRTYSmNUncQA-52" target="8tRsAm4OLRTYSmNUncQA-51">
          <mxGeometry width="50" height="50" relative="1" as="geometry">
            <mxPoint x="800" y="660" as="sourcePoint" />
            <mxPoint x="850" y="610" as="targetPoint" />
            <Array as="points">
              <mxPoint x="890" y="430" />
            </Array>
          </mxGeometry>
        </mxCell>
        <mxCell id="8tRsAm4OLRTYSmNUncQA-76" value="c&amp;nbsp; &amp;nbsp;d" style="edgeLabel;html=1;align=center;verticalAlign=middle;resizable=0;points=[];labelBackgroundColor=none;" vertex="1" connectable="0" parent="8tRsAm4OLRTYSmNUncQA-75">
          <mxGeometry x="-0.0609" y="9" relative="1" as="geometry">
            <mxPoint x="-2" y="-9" as="offset" />
          </mxGeometry>
        </mxCell>
        <mxCell id="8tRsAm4OLRTYSmNUncQA-79" value="&lt;span style=&quot;font-size: 20px;&quot;&gt;F&lt;/span&gt;" style="ellipse;whiteSpace=wrap;html=1;aspect=fixed;movable=1;resizable=1;rotatable=1;deletable=1;editable=1;locked=0;connectable=1;" vertex="1" parent="1">
          <mxGeometry x="460" y="750" width="40" height="40" as="geometry" />
        </mxCell>
        <mxCell id="8tRsAm4OLRTYSmNUncQA-87" value="" style="rounded=0;orthogonalLoop=1;jettySize=auto;html=1;" edge="1" parent="1" source="8tRsAm4OLRTYSmNUncQA-82" target="8tRsAm4OLRTYSmNUncQA-86">
          <mxGeometry relative="1" as="geometry" />
        </mxCell>
        <mxCell id="8tRsAm4OLRTYSmNUncQA-88" value="e" style="edgeLabel;html=1;align=center;verticalAlign=middle;resizable=0;points=[];labelBackgroundColor=none;" vertex="1" connectable="0" parent="8tRsAm4OLRTYSmNUncQA-87">
          <mxGeometry x="0.0417" y="-2" relative="1" as="geometry">
            <mxPoint x="-10" y="-9" as="offset" />
          </mxGeometry>
        </mxCell>
        <mxCell id="8tRsAm4OLRTYSmNUncQA-82" value="&lt;span style=&quot;font-size: 20px;&quot;&gt;B&lt;/span&gt;" style="ellipse;whiteSpace=wrap;html=1;aspect=fixed;movable=1;resizable=1;rotatable=1;deletable=1;editable=1;locked=0;connectable=1;" vertex="1" parent="1">
          <mxGeometry x="460" y="670" width="40" height="40" as="geometry" />
        </mxCell>
        <mxCell id="8tRsAm4OLRTYSmNUncQA-94" style="rounded=0;orthogonalLoop=1;jettySize=auto;html=1;entryX=1;entryY=1;entryDx=0;entryDy=0;" edge="1" parent="1" source="8tRsAm4OLRTYSmNUncQA-86" target="8tRsAm4OLRTYSmNUncQA-93">
          <mxGeometry relative="1" as="geometry" />
        </mxCell>
        <mxCell id="8tRsAm4OLRTYSmNUncQA-95" value="f" style="edgeLabel;html=1;align=center;verticalAlign=middle;resizable=0;points=[];" vertex="1" connectable="0" parent="8tRsAm4OLRTYSmNUncQA-94">
          <mxGeometry x="-0.0736" y="-1" relative="1" as="geometry">
            <mxPoint x="5" y="-6" as="offset" />
          </mxGeometry>
        </mxCell>
        <mxCell id="8tRsAm4OLRTYSmNUncQA-86" value="&lt;span style=&quot;font-size: 20px;&quot;&gt;C&lt;/span&gt;" style="ellipse;whiteSpace=wrap;html=1;aspect=fixed;movable=1;resizable=1;rotatable=1;deletable=1;editable=1;locked=0;connectable=1;" vertex="1" parent="1">
          <mxGeometry x="520" y="610" width="40" height="40" as="geometry" />
        </mxCell>
        <mxCell id="8tRsAm4OLRTYSmNUncQA-90" value="" style="curved=1;endArrow=classic;html=1;rounded=0;entryX=1;entryY=0;entryDx=0;entryDy=0;exitX=0;exitY=0.5;exitDx=0;exitDy=0;" edge="1" parent="1" source="8tRsAm4OLRTYSmNUncQA-86" target="8tRsAm4OLRTYSmNUncQA-65">
          <mxGeometry width="50" height="50" relative="1" as="geometry">
            <mxPoint x="420" y="650" as="sourcePoint" />
            <mxPoint x="470" y="600" as="targetPoint" />
            <Array as="points">
              <mxPoint x="440" y="630" />
            </Array>
          </mxGeometry>
        </mxCell>
        <mxCell id="8tRsAm4OLRTYSmNUncQA-92" value="h" style="edgeLabel;html=1;align=center;verticalAlign=middle;resizable=0;points=[];labelBackgroundColor=none;" vertex="1" connectable="0" parent="8tRsAm4OLRTYSmNUncQA-90">
          <mxGeometry x="0.1715" y="9" relative="1" as="geometry">
            <mxPoint x="6" y="-12" as="offset" />
          </mxGeometry>
        </mxCell>
        <mxCell id="8tRsAm4OLRTYSmNUncQA-97" value="" style="edgeStyle=orthogonalEdgeStyle;rounded=0;orthogonalLoop=1;jettySize=auto;html=1;" edge="1" parent="1" source="8tRsAm4OLRTYSmNUncQA-93" target="8tRsAm4OLRTYSmNUncQA-96">
          <mxGeometry relative="1" as="geometry" />
        </mxCell>
        <mxCell id="8tRsAm4OLRTYSmNUncQA-98" value="a" style="edgeLabel;html=1;align=center;verticalAlign=middle;resizable=0;points=[];labelBackgroundColor=none;" vertex="1" connectable="0" parent="8tRsAm4OLRTYSmNUncQA-97">
          <mxGeometry y="1" relative="1" as="geometry">
            <mxPoint y="-9" as="offset" />
          </mxGeometry>
        </mxCell>
        <mxCell id="8tRsAm4OLRTYSmNUncQA-93" value="&lt;span style=&quot;font-size: 20px;&quot;&gt;D&lt;/span&gt;" style="ellipse;whiteSpace=wrap;html=1;aspect=fixed;movable=1;resizable=1;rotatable=1;deletable=1;editable=1;locked=0;connectable=1;" vertex="1" parent="1">
          <mxGeometry x="460" y="550" width="40" height="40" as="geometry" />
        </mxCell>
        <mxCell id="8tRsAm4OLRTYSmNUncQA-99" style="rounded=0;orthogonalLoop=1;jettySize=auto;html=1;entryX=0.5;entryY=0;entryDx=0;entryDy=0;" edge="1" parent="1" source="8tRsAm4OLRTYSmNUncQA-96" target="8tRsAm4OLRTYSmNUncQA-65">
          <mxGeometry relative="1" as="geometry" />
        </mxCell>
        <mxCell id="8tRsAm4OLRTYSmNUncQA-96" value="&lt;span style=&quot;font-size: 20px;&quot;&gt;E&lt;/span&gt;" style="ellipse;whiteSpace=wrap;html=1;aspect=fixed;movable=1;resizable=1;rotatable=1;deletable=1;editable=1;locked=0;connectable=1;" vertex="1" parent="1">
          <mxGeometry x="380" y="550" width="40" height="40" as="geometry" />
        </mxCell>
        <mxCell id="8tRsAm4OLRTYSmNUncQA-102" value="g" style="edgeLabel;html=1;align=center;verticalAlign=middle;resizable=0;points=[];labelBackgroundColor=none;" vertex="1" connectable="0" parent="1">
          <mxGeometry x="372.1215501624149" y="611.5128689351054" as="geometry" />
        </mxCell>
        <mxCell id="8tRsAm4OLRTYSmNUncQA-104" value="" style="curved=1;endArrow=classic;html=1;rounded=0;exitX=0;exitY=0.5;exitDx=0;exitDy=0;entryX=0.727;entryY=0.958;entryDx=0;entryDy=0;entryPerimeter=0;" edge="1" parent="1" source="8tRsAm4OLRTYSmNUncQA-79" target="8tRsAm4OLRTYSmNUncQA-65">
          <mxGeometry width="50" height="50" relative="1" as="geometry">
            <mxPoint x="530" y="640" as="sourcePoint" />
            <mxPoint x="371" y="710" as="targetPoint" />
            <Array as="points">
              <mxPoint x="410" y="760" />
            </Array>
          </mxGeometry>
        </mxCell>
        <mxCell id="8tRsAm4OLRTYSmNUncQA-105" value="i" style="edgeLabel;html=1;align=center;verticalAlign=middle;resizable=0;points=[];labelBackgroundColor=none;" vertex="1" connectable="0" parent="8tRsAm4OLRTYSmNUncQA-104">
          <mxGeometry x="0.1715" y="9" relative="1" as="geometry">
            <mxPoint x="9" as="offset" />
          </mxGeometry>
        </mxCell>
        <mxCell id="8tRsAm4OLRTYSmNUncQA-107" value="" style="endArrow=classic;html=1;rounded=0;" edge="1" parent="1">
          <mxGeometry width="50" height="50" relative="1" as="geometry">
            <mxPoint x="285" y="300" as="sourcePoint" />
            <mxPoint x="315" y="300" as="targetPoint" />
          </mxGeometry>
        </mxCell>
        <mxCell id="8tRsAm4OLRTYSmNUncQA-108" value="" style="endArrow=classic;html=1;rounded=0;" edge="1" parent="1">
          <mxGeometry width="50" height="50" relative="1" as="geometry">
            <mxPoint x="305" y="689.6600000000001" as="sourcePoint" />
            <mxPoint x="335" y="689.6600000000001" as="targetPoint" />
          </mxGeometry>
        </mxCell>
        <mxCell id="8tRsAm4OLRTYSmNUncQA-109" value="" style="endArrow=classic;html=1;rounded=0;" edge="1" parent="1">
          <mxGeometry width="50" height="50" relative="1" as="geometry">
            <mxPoint x="775" y="469.31" as="sourcePoint" />
            <mxPoint x="805" y="469.31" as="targetPoint" />
          </mxGeometry>
        </mxCell>
        <mxCell id="8tRsAm4OLRTYSmNUncQA-112" value="" style="curved=1;endArrow=classic;html=1;rounded=0;exitX=0.331;exitY=0.031;exitDx=0;exitDy=0;exitPerimeter=0;entryX=0.06;entryY=0.256;entryDx=0;entryDy=0;entryPerimeter=0;" edge="1" parent="1" source="8tRsAm4OLRTYSmNUncQA-65" target="8tRsAm4OLRTYSmNUncQA-65">
          <mxGeometry width="50" height="50" relative="1" as="geometry">
            <mxPoint x="290" y="610" as="sourcePoint" />
            <mxPoint x="340" y="560" as="targetPoint" />
            <Array as="points">
              <mxPoint x="330" y="620" />
              <mxPoint x="300" y="640" />
            </Array>
          </mxGeometry>
        </mxCell>
        <mxCell id="8tRsAm4OLRTYSmNUncQA-113" value="a" style="edgeLabel;html=1;align=center;verticalAlign=middle;resizable=0;points=[];labelBackgroundColor=none;" vertex="1" connectable="0" parent="1">
          <mxGeometry x="312.1215501624149" y="621.5128689351054" as="geometry" />
        </mxCell>
        <mxCell id="8tRsAm4OLRTYSmNUncQA-114" value="&lt;span style=&quot;font-size: 20px;&quot;&gt;G&lt;/span&gt;" style="ellipse;whiteSpace=wrap;html=1;aspect=fixed;movable=1;resizable=1;rotatable=1;deletable=1;editable=1;locked=0;connectable=1;" vertex="1" parent="1">
          <mxGeometry x="340" y="790" width="40" height="40" as="geometry" />
        </mxCell>
        <mxCell id="8tRsAm4OLRTYSmNUncQA-117" value="b" style="edgeLabel;html=1;align=center;verticalAlign=middle;resizable=0;points=[];labelBackgroundColor=none;" vertex="1" connectable="0" parent="1">
          <mxGeometry x="368.1248251827136" y="749.9951902167796" as="geometry" />
        </mxCell>
        <mxCell id="8tRsAm4OLRTYSmNUncQA-118" value="" style="curved=1;endArrow=classic;html=1;rounded=0;exitX=0.26;exitY=0.06;exitDx=0;exitDy=0;entryX=0.292;entryY=0.969;entryDx=0;entryDy=0;entryPerimeter=0;exitPerimeter=0;" edge="1" parent="1" source="8tRsAm4OLRTYSmNUncQA-114" target="8tRsAm4OLRTYSmNUncQA-65">
          <mxGeometry width="50" height="50" relative="1" as="geometry">
            <mxPoint x="470" y="780" as="sourcePoint" />
            <mxPoint x="381" y="723" as="targetPoint" />
            <Array as="points">
              <mxPoint x="340" y="750" />
            </Array>
          </mxGeometry>
        </mxCell>
        <mxCell id="8tRsAm4OLRTYSmNUncQA-119" value="g" style="edgeLabel;html=1;align=center;verticalAlign=middle;resizable=0;points=[];labelBackgroundColor=none;" vertex="1" connectable="0" parent="8tRsAm4OLRTYSmNUncQA-118">
          <mxGeometry x="0.1715" y="9" relative="1" as="geometry">
            <mxPoint x="5" y="5" as="offset" />
          </mxGeometry>
        </mxCell>
      </root>
    </mxGraphModel>
  </diagram>
</mxfile>
